<?xml version="1.0" encoding="UTF-8" standalone="no"?>
<svg xmlns="http://www.w3.org/2000/svg" width="1200" height="1200" viewBox="0 0 1200 1200" role="img" aria-label="Regular hendecagon with all diagonals drawn">
  <rect x="0" y="0" width="1200" height="1200" fill="#FFFFFF"/>
  <g stroke-linecap="round" stroke-linejoin="round">
    <line x1="600.00" y1="120.00" x2="859.51" y2="196.20" stroke="#152328" stroke-opacity="0.18" stroke-width="2"/>    <line x1="600.00" y1="120.00" x2="1036.62" y2="400.60" stroke="#152328" stroke-opacity="0.18" stroke-width="2"/>    <line x1="600.00" y1="120.00" x2="1075.11" y2="668.31" stroke="#152328" stroke-opacity="0.18" stroke-width="2"/>    <line x1="600.00" y1="120.00" x2="962.76" y2="914.33" stroke="#152328" stroke-opacity="0.18" stroke-width="2"/>    <line x1="600.00" y1="120.00" x2="735.23" y2="1060.56" stroke="#152328" stroke-opacity="0.18" stroke-width="2"/>    <line x1="600.00" y1="120.00" x2="464.77" y2="1060.56" stroke="#152328" stroke-opacity="0.18" stroke-width="2"/>    <line x1="600.00" y1="120.00" x2="237.24" y2="914.33" stroke="#152328" stroke-opacity="0.18" stroke-width="2"/>    <line x1="600.00" y1="120.00" x2="124.89" y2="668.31" stroke="#152328" stroke-opacity="0.18" stroke-width="2"/>    <line x1="600.00" y1="120.00" x2="163.38" y2="400.60" stroke="#152328" stroke-opacity="0.18" stroke-width="2"/>    <line x1="600.00" y1="120.00" x2="340.49" y2="196.20" stroke="#152328" stroke-opacity="0.18" stroke-width="2"/>    <line x1="859.51" y1="196.20" x2="1036.62" y2="400.60" stroke="#152328" stroke-opacity="0.18" stroke-width="2"/>    <line x1="859.51" y1="196.20" x2="1075.11" y2="668.31" stroke="#152328" stroke-opacity="0.18" stroke-width="2"/>    <line x1="859.51" y1="196.20" x2="962.76" y2="914.33" stroke="#152328" stroke-opacity="0.18" stroke-width="2"/>    <line x1="859.51" y1="196.20" x2="735.23" y2="1060.56" stroke="#152328" stroke-opacity="0.18" stroke-width="2"/>    <line x1="859.51" y1="196.20" x2="464.77" y2="1060.56" stroke="#152328" stroke-opacity="0.18" stroke-width="2"/>    <line x1="859.51" y1="196.20" x2="237.24" y2="914.33" stroke="#152328" stroke-opacity="0.18" stroke-width="2"/>    <line x1="859.51" y1="196.20" x2="124.89" y2="668.31" stroke="#152328" stroke-opacity="0.18" stroke-width="2"/>    <line x1="859.51" y1="196.20" x2="163.38" y2="400.60" stroke="#152328" stroke-opacity="0.18" stroke-width="2"/>    <line x1="859.51" y1="196.20" x2="340.49" y2="196.20" stroke="#152328" stroke-opacity="0.18" stroke-width="2"/>    <line x1="1036.62" y1="400.60" x2="1075.11" y2="668.31" stroke="#152328" stroke-opacity="0.18" stroke-width="2"/>    <line x1="1036.62" y1="400.60" x2="962.76" y2="914.33" stroke="#152328" stroke-opacity="0.18" stroke-width="2"/>    <line x1="1036.62" y1="400.60" x2="735.23" y2="1060.56" stroke="#152328" stroke-opacity="0.18" stroke-width="2"/>    <line x1="1036.62" y1="400.60" x2="464.77" y2="1060.56" stroke="#152328" stroke-opacity="0.18" stroke-width="2"/>    <line x1="1036.62" y1="400.60" x2="237.24" y2="914.33" stroke="#152328" stroke-opacity="0.18" stroke-width="2"/>    <line x1="1036.62" y1="400.60" x2="124.89" y2="668.31" stroke="#152328" stroke-opacity="0.18" stroke-width="2"/>    <line x1="1036.62" y1="400.60" x2="163.38" y2="400.60" stroke="#152328" stroke-opacity="0.18" stroke-width="2"/>    <line x1="1036.62" y1="400.60" x2="340.49" y2="196.20" stroke="#152328" stroke-opacity="0.18" stroke-width="2"/>    <line x1="1075.11" y1="668.31" x2="962.76" y2="914.33" stroke="#152328" stroke-opacity="0.18" stroke-width="2"/>    <line x1="1075.11" y1="668.31" x2="735.23" y2="1060.56" stroke="#152328" stroke-opacity="0.18" stroke-width="2"/>    <line x1="1075.11" y1="668.31" x2="464.77" y2="1060.56" stroke="#152328" stroke-opacity="0.18" stroke-width="2"/>    <line x1="1075.11" y1="668.31" x2="237.24" y2="914.33" stroke="#152328" stroke-opacity="0.18" stroke-width="2"/>    <line x1="1075.11" y1="668.31" x2="124.89" y2="668.31" stroke="#152328" stroke-opacity="0.18" stroke-width="2"/>    <line x1="1075.11" y1="668.31" x2="163.38" y2="400.60" stroke="#152328" stroke-opacity="0.18" stroke-width="2"/>    <line x1="1075.11" y1="668.31" x2="340.49" y2="196.20" stroke="#152328" stroke-opacity="0.18" stroke-width="2"/>    <line x1="962.76" y1="914.33" x2="735.23" y2="1060.56" stroke="#152328" stroke-opacity="0.18" stroke-width="2"/>    <line x1="962.76" y1="914.33" x2="464.77" y2="1060.56" stroke="#152328" stroke-opacity="0.18" stroke-width="2"/>    <line x1="962.76" y1="914.33" x2="237.24" y2="914.33" stroke="#152328" stroke-opacity="0.18" stroke-width="2"/>    <line x1="962.76" y1="914.33" x2="124.89" y2="668.31" stroke="#152328" stroke-opacity="0.18" stroke-width="2"/>    <line x1="962.76" y1="914.33" x2="163.38" y2="400.60" stroke="#152328" stroke-opacity="0.18" stroke-width="2"/>    <line x1="962.76" y1="914.33" x2="340.49" y2="196.20" stroke="#152328" stroke-opacity="0.18" stroke-width="2"/>    <line x1="735.23" y1="1060.56" x2="464.77" y2="1060.56" stroke="#152328" stroke-opacity="0.18" stroke-width="2"/>    <line x1="735.23" y1="1060.56" x2="237.24" y2="914.33" stroke="#152328" stroke-opacity="0.18" stroke-width="2"/>    <line x1="735.23" y1="1060.56" x2="124.89" y2="668.31" stroke="#152328" stroke-opacity="0.18" stroke-width="2"/>    <line x1="735.23" y1="1060.56" x2="163.38" y2="400.60" stroke="#152328" stroke-opacity="0.18" stroke-width="2"/>    <line x1="735.23" y1="1060.56" x2="340.49" y2="196.20" stroke="#152328" stroke-opacity="0.18" stroke-width="2"/>    <line x1="464.77" y1="1060.56" x2="237.24" y2="914.33" stroke="#152328" stroke-opacity="0.18" stroke-width="2"/>    <line x1="464.77" y1="1060.56" x2="124.89" y2="668.31" stroke="#152328" stroke-opacity="0.18" stroke-width="2"/>    <line x1="464.77" y1="1060.56" x2="163.38" y2="400.60" stroke="#152328" stroke-opacity="0.18" stroke-width="2"/>    <line x1="464.77" y1="1060.56" x2="340.49" y2="196.20" stroke="#152328" stroke-opacity="0.18" stroke-width="2"/>    <line x1="237.24" y1="914.33" x2="124.89" y2="668.31" stroke="#152328" stroke-opacity="0.18" stroke-width="2"/>    <line x1="237.24" y1="914.33" x2="163.38" y2="400.60" stroke="#152328" stroke-opacity="0.18" stroke-width="2"/>    <line x1="237.24" y1="914.33" x2="340.49" y2="196.20" stroke="#152328" stroke-opacity="0.18" stroke-width="2"/>    <line x1="124.89" y1="668.31" x2="163.38" y2="400.60" stroke="#152328" stroke-opacity="0.18" stroke-width="2"/>    <line x1="124.89" y1="668.31" x2="340.49" y2="196.20" stroke="#152328" stroke-opacity="0.18" stroke-width="2"/>    <line x1="163.38" y1="400.60" x2="340.49" y2="196.20" stroke="#152328" stroke-opacity="0.18" stroke-width="2"/>    <line x1="600.00" y1="120.00" x2="859.51" y2="196.20" stroke="#5EFF73" stroke-width="6"/>    <line x1="859.51" y1="196.20" x2="1036.62" y2="400.60" stroke="#5EFF73" stroke-width="6"/>    <line x1="1036.62" y1="400.60" x2="1075.11" y2="668.31" stroke="#5EFF73" stroke-width="6"/>    <line x1="1075.11" y1="668.31" x2="962.76" y2="914.33" stroke="#5EFF73" stroke-width="6"/>    <line x1="962.76" y1="914.33" x2="735.23" y2="1060.56" stroke="#5EFF73" stroke-width="6"/>    <line x1="735.23" y1="1060.56" x2="464.77" y2="1060.56" stroke="#5EFF73" stroke-width="6"/>    <line x1="464.77" y1="1060.56" x2="237.24" y2="914.33" stroke="#5EFF73" stroke-width="6"/>    <line x1="237.24" y1="914.33" x2="124.89" y2="668.31" stroke="#5EFF73" stroke-width="6"/>    <line x1="124.89" y1="668.31" x2="163.38" y2="400.60" stroke="#5EFF73" stroke-width="6"/>    <line x1="163.38" y1="400.60" x2="340.49" y2="196.20" stroke="#5EFF73" stroke-width="6"/>    <line x1="340.49" y1="196.20" x2="600.00" y2="120.00" stroke="#5EFF73" stroke-width="6"/>    <circle cx="600.00" cy="120.00" r="5" fill="#152328" />    <circle cx="859.51" cy="196.20" r="5" fill="#152328" />    <circle cx="1036.62" cy="400.60" r="5" fill="#152328" />    <circle cx="1075.11" cy="668.31" r="5" fill="#152328" />    <circle cx="962.76" cy="914.33" r="5" fill="#152328" />    <circle cx="735.23" cy="1060.56" r="5" fill="#152328" />    <circle cx="464.77" cy="1060.56" r="5" fill="#152328" />    <circle cx="237.24" cy="914.33" r="5" fill="#152328" />    <circle cx="124.89" cy="668.31" r="5" fill="#152328" />    <circle cx="163.38" cy="400.60" r="5" fill="#152328" />    <circle cx="340.49" cy="196.20" r="5" fill="#152328" /></g>
</svg>
