<?xml version="1.0" encoding="UTF-8"?>
<svg id="Layer_2" data-name="Layer 2" xmlns="http://www.w3.org/2000/svg" viewBox="0 0 380.31 70.75">
  <defs>
    <style>
      .cls-1 {
        fill: #00ff68;
      }

      .cls-2 {
        fill: #fff;
      }
    </style>
  </defs>
  <g id="Layer_1-2" data-name="Layer 1">
    <g>
      <path class="cls-2" d="M128.14,60.8V18.62h13.79v5.67h.81c.71-1.29,1.65-2.45,2.77-3.4,2.59-2.31,5.95-3.55,9.41-3.49,3.92-.17,7.74,1.23,10.62,3.89,1.14,1.09,2.08,2.39,2.76,3.81h.82c.66-1.42,1.56-2.71,2.67-3.81,2.75-2.66,6.48-4.07,10.3-3.89,4.35-.25,8.59,1.39,11.64,4.5,3,3.62,4.49,8.25,4.17,12.94v25.95h-13.79v-23.93c0-5.13-2.16-7.7-6.48-7.7-2.12-.08-4.17,.78-5.6,2.35-1.5,1.85-2.26,4.19-2.11,6.57v22.71h-13.79v-23.93c0-5.13-2.16-7.7-6.49-7.7-2.12-.08-4.17,.78-5.59,2.35-1.5,1.85-2.26,4.19-2.11,6.57v22.71h-13.79Z"/>
      <path class="cls-2" d="M220.28,31.93c-1.74,2.2-2.61,4.97-2.43,7.78-.18,2.81,.69,5.58,2.43,7.79,1.64,1.85,4.02,2.87,6.5,2.76,2.47,.1,4.85-.91,6.49-2.75,1.74-2.2,2.61-4.97,2.43-7.78,.18-2.8-.69-5.58-2.43-7.78-1.64-1.85-4.02-2.87-6.49-2.77-2.47-.11-4.85,.9-6.5,2.74m-11.19,23.96c-3.78-4.52-5.72-10.3-5.43-16.18-.29-5.89,1.65-11.66,5.43-16.18,3.26-3.92,8.12-6.17,13.22-6.13,3.47,.04,6.82,1.27,9.49,3.49,1.19,.97,2.23,2.12,3.08,3.4h.81v-5.67h13.8V60.81h-13.8v-5.68h-.81c-.8,1.34-1.85,2.52-3.08,3.48-2.68,2.2-6.03,3.41-9.49,3.43-5.1,.04-9.95-2.22-13.22-6.14"/>
    </g>
    <polygon class="cls-2" points="254.44 29.57 254.44 18.62 259.71 18.62 259.71 9.71 273.49 9.71 273.49 18.62 284.45 18.62 284.45 29.57 273.49 29.57 273.49 49.85 285.26 49.85 285.26 60.8 259.71 60.8 259.71 29.57 254.44 29.57"/>
    <g>
      <path class="cls-2" d="M290.98,60.97l.09-56.78,13.79,.02-.03,20.28h.81c.76-1.3,1.75-2.45,2.92-3.4,2.69-2.3,6.13-3.54,9.67-3.47,4.35-.24,8.58,1.41,11.63,4.52,3,3.62,4.49,8.26,4.16,12.95l-.04,25.95-13.79-.02,.04-23.93c.13-2.07-.57-4.12-1.94-5.68-1.42-1.4-3.37-2.14-5.36-2.04-2.22-.05-4.35,.88-5.81,2.55-1.61,1.88-2.44,4.3-2.32,6.76l-.04,22.31-13.79-.02Z"/>
      <path class="cls-2" d="M338.94,47.26l13.79,.02c.25,.87,.72,1.65,1.37,2.27,1.72,1.56,4,2.36,6.32,2.2,3.78,0,5.68-.93,5.68-2.83,0-.87-.55-1.55-1.62-2.07-1.56-.68-3.19-1.21-4.85-1.59-1.79-.45-2.95-.72-3.49-.82s-1.68-.42-3.41-.94c-1.27-.34-2.51-.81-3.7-1.39-.72-.4-1.73-.99-3-1.78-1.07-.62-2.01-1.45-2.74-2.45-.65-.99-1.17-2.05-1.58-3.16-.49-1.31-.73-2.7-.72-4.1,.04-3.65,1.83-7.05,4.8-9.16,3.93-2.76,8.68-4.09,13.47-3.79,6.51-.3,12.81,2.33,17.18,7.16,1.67,2.06,2.86,4.48,3.48,7.07l-13.38-.02c-.26-.74-.64-1.43-1.14-2.03-1.41-1.42-3.36-2.16-5.35-2.03-3.24,0-4.86,.94-4.87,2.83,.03,.98,.69,1.82,1.62,2.1,1.59,.64,3.25,1.11,4.95,1.4,3.86,.77,7.63,1.91,11.27,3.42,4.47,1.79,7.36,6.15,7.28,10.95-.01,3.92-1.95,7.59-5.17,9.82-3.43,2.64-8.34,3.96-14.72,3.95-7.83-.01-13.81-2.51-17.92-7.49-1.81-2.17-3.04-4.77-3.56-7.55"/>
      <path class="cls-1" d="M36.38,40.6l.04-25.96,13.79,.02-.04,23.94c-.13,2.07,.57,4.12,1.94,5.68,1.41,1.41,3.36,2.15,5.35,2.04,2.21,.05,4.33-.87,5.8-2.53,1.61-1.88,2.44-4.3,2.32-6.78l.04-22.32,13.79,.02-.07,42.18-13.79-.02v-5.67s-.81,0-.81,0c-.72,1.35-1.71,2.54-2.93,3.47-2.7,2.27-6.13,3.48-9.65,3.4-4.35,.24-8.59-1.4-11.63-4.52-2.99-3.63-4.47-8.26-4.15-12.95"/>
      <path class="cls-1" d="M87.29,70.71l.02-11.49h5.15c.97,.07,1.92-.28,2.62-.94,.64-.65,.99-1.54,.95-2.46l.02-11.65c-.11-2.61,1.08-5.11,3.18-6.66,.97-.61,2.05-1.03,3.17-1.26v-.79c-1.12-.23-2.2-.66-3.17-1.27-2.1-1.56-3.29-4.06-3.17-6.68l.02-11.65c.04-.91-.3-1.8-.94-2.46-.7-.66-1.65-1.01-2.62-.96h-5.16s.02-11.5,.02-11.5l9.12,.02c3.53-.21,7,1.01,9.63,3.38,2.39,2.49,3.64,5.88,3.43,9.33l-.02,13.48c-.02,.74,.26,1.46,.79,1.98,.52,.53,1.24,.82,1.98,.8h3.17s-.02,11.9-.02,11.9h-3.17c-.74-.03-1.46,.26-1.98,.78-.53,.52-.82,1.24-.8,1.98l-.02,13.48c.19,3.45-1.06,6.83-3.46,9.31-2.63,2.36-6.11,3.57-9.64,3.35h-9.12Z"/>
      <path class="cls-1" d="M28.21,.04l-.02,11.49h-5.15c-.96-.06-1.91,.28-2.62,.94-.64,.65-.99,1.54-.96,2.46l-.02,11.65c.11,2.61-1.08,5.11-3.19,6.66-.97,.61-2.05,1.03-3.17,1.26v.79c1.12,.23,2.2,.66,3.17,1.27,2.1,1.56,3.28,4.06,3.16,6.67l-.02,11.66c-.04,.91,.31,1.8,.95,2.46,.7,.66,1.65,1.01,2.62,.96h5.16s-.02,11.5-.02,11.5l-9.12-.02c-3.53,.21-7-1.01-9.63-3.38-2.39-2.49-3.63-5.87-3.43-9.32l.02-13.48c.02-.74-.26-1.46-.79-1.98-.52-.53-1.24-.82-1.98-.8H0s.02-11.9,.02-11.9H3.19c.74,.03,1.46-.26,1.98-.78,.53-.52,.82-1.24,.8-1.98l.02-13.48c-.19-3.45,1.06-6.83,3.46-9.32C12.09,1.01,15.56-.2,19.09,.03l9.12,.02Z"/>
    </g>
  </g>
</svg>